# xmcd CD database file
#
# Track frame offsets:
#	187
#	21295
#	34850
#	54632
#	64542
#	86625
#	104562
#	116037
#	127667
#	145887
#	161712
#	183850
#	201855
#	219962
#	237450
#	254892
#
# Disc length: 3557 seconds
#
# Revision: 0
# Processed by: cddbd v1.5.1PL0 Copyright (c) Steve Scherf et al.
# Submitted via: CDex 1.51
#
DISCID=ea0de310
DTITLE=Bud Powell - Jazz At Massey Hall, Vol2
DYEAR=1953
DGENRE=Jazz
TTITLE0=Drum Conversation
TTITLE1=I've Got You Under My Skin
TTITLE2=Embraceable You
TTITLE3=Sure Thing
TTITLE4=Cherokee
TTITLE5=(Jubilee) Hallelujah
TTITLE6=Lullaby Of Birdland
TTITLE7=My Devotion
TTITLE8=Polka Dots And Moonbeams
TTITLE9=My Heart Stood Still
TTITLE10=I Want To Be Happy
TTITLE11=Bass-Ically Speaking
TTITLE12=Bass-Ically Speaking [alternate take 1]
TTITLE13=Bass-Ically Speaking [alternate take 2]
TTITLE14=Bass-Ically Speaking [alternate take 3]
TTITLE15=[Untitled Blues]
EXTD=YEAR: 1953
EXTT0=
EXTT1=
EXTT2=
EXTT3=
EXTT4=
EXTT5=
EXTT6=
EXTT7=
EXTT8=
EXTT9=
EXTT10=
EXTT11=
EXTT12=
EXTT13=
EXTT14=
EXTT15=
PLAYORDER=
